<?xml version="1.0" ?><svg style="enable-background:new 0 0 64 64;" version="1.1" viewBox="0 0 64 64" xml:space="preserve" xmlns="http://www.w3.org/2000/svg" xmlns:xlink="http://www.w3.org/1999/xlink"><style type="text/css">
	.st0{fill:#231F20;}
</style><g id="Guide"/><g id="search"/><g id="price_tag"/><g id="coupon"/><g id="credit_card"/><g id="shipping"><path class="st0" d="M58,28.8l-8.2-7.5c-0.2-0.2-0.4-0.3-0.7-0.3H40c-0.4,0-0.7,0.1-1,0.2V16c0-1.7-1.3-3-3-3H8c-1.7,0-3,1.3-3,3   v16c0,0.8,0.3,1.5,0.8,2C5.3,34.5,5,35.2,5,36v6c0,1.7,1.3,3,3,3h3c0,3.3,2.7,6,6,6s6-2.7,6-6h13c0.8,0,1.5-0.3,2-0.8   c0.5,0.5,1.2,0.8,2,0.8h1c0,3.3,2.7,6,6,6s6-2.7,6-6h3c1.7,0,3-1.3,3-3V31C59,30.2,58.6,29.4,58,28.8z M7,16c0-0.6,0.4-1,1-1h28   c0.6,0,1,0.4,1,1v8v8c0,0.6-0.4,1-1,1H8c-0.6,0-1-0.4-1-1V16z M17,49c-2.2,0-4-1.8-4-4s1.8-4,4-4s4,1.8,4,4S19.2,49,17,49z M36,43   H22.6c-0.8-2.3-3-4-5.6-4s-4.8,1.7-5.6,4H8c-0.6,0-1-0.4-1-1v-6c0-0.6,0.4-1,1-1h28c0.6,0,1,0.4,1,1v6C37,42.6,36.6,43,36,43z    M47,49c-2.2,0-4-1.8-4-4s1.8-4,4-4s4,1.8,4,4S49.2,49,47,49z M57,42c0,0.6-0.4,1-1,1h-3.2c-0.1,0-0.1,0-0.2,0c-0.8-2.3-3-4-5.7-4   c-2.6,0-4.8,1.7-5.6,4H40c-0.6,0-1-0.4-1-1v-6v-4v-8c0-0.6,0.4-1,1-1h8.7l8,7.3c0.2,0.2,0.3,0.5,0.3,0.7V42z"/></g><g id="notification"/><g id="money"/><g id="discount"/><g id="wishlist"/><g id="location"/><g id="shopping_bag_1_"/><g id="calculator"/><g id="mobile_ecommerce"/><g id="koin"/><g id="setting"/><g id="online_shop"/><g id="return"/><g id="box"/><g id="internet"/><g id="info"/><g id="gift"/><g id="basket_1_"/><g id="calender"/><g id="store"/><g id="wallet"/></svg>